<?xml version="1.0" encoding="UTF-8"?>
<svg width="56px" height="56px" viewBox="0 0 56 56" version="1.1" xmlns="http://www.w3.org/2000/svg" xmlns:xlink="http://www.w3.org/1999/xlink">
    <!-- Generator: Sketch 63.1 (92452) - https://sketch.com -->
    <title>MessagingStates/X ⛔️/Decoration/danger</title>
    <desc>Created with Sketch.</desc>
    <g id="Page-1" stroke="none" stroke-width="1" fill="none" fill-rule="evenodd">
        <g id="inout-do" transform="translate(-16.000000, -328.000000)">
            <g id="MessagingStates/X-⛔️/Decoration/success" transform="translate(16.000000, 328.000000)">
                <path d="M28,2 C20.8202983,2 14.3202983,4.91014913 9.61522369,9.61522369 C4.91014913,14.3202983 2,20.8202983 2,28 C2,35.1797017 4.91014913,41.6797017 9.61522369,46.3847763 C14.3202983,51.0898509 20.8202983,54 28,54 C35.1797017,54 41.6797017,51.0898509 46.3847763,46.3847763 C51.0898509,41.6797017 54,35.1797017 54,28 C54,21.5488356 51.6507,15.6462793 47.7604543,11.1017323 C42.9916803,5.5308973 35.9082561,2 28,2 Z" id="Outline" stroke="#2CF287" stroke-width="4"></path>
                <g id="01-Icons/checkmark" transform="translate(9.333333, 9.333333)" fill="#00E89A" fill-rule="evenodd">
                    <path d="M16.1406,30.3334889 C15.9166,30.3334889 15.6910444,30.2697111 15.4919333,30.1390444 L5.95171111,23.7954889 C5.42282222,23.4439333 5.28593333,22.7408222 5.64371111,22.2228222 C6.00148889,21.7063778 6.72015556,21.5741556 7.24748889,21.9226 L15.8341556,27.6299333 L29.7781556,7.49637778 C30.1343778,6.97993333 30.8530444,6.8446 31.3819333,7.1946 C31.9108222,7.54615556 32.0492667,8.25082222 31.6899333,8.76726667 L17.0972667,29.8372667 C16.8732667,30.1592667 16.5108222,30.3334889 16.1406,30.3334889" id="icon-color"></path>
                </g>
            </g>
        </g>
    </g>
</svg>