<?xml version="1.0" encoding="UTF-8"?>
<svg width="36px" height="36px" viewBox="0 0 36 36" version="1.1" xmlns="http://www.w3.org/2000/svg" xmlns:xlink="http://www.w3.org/1999/xlink">
    <!-- Generator: Sketch 63.1 (92452) - https://sketch.com -->
    <title>do</title>
    <desc>Created with Sketch.</desc>
    <g id="Page-1" stroke="none" stroke-width="1" fill="none" fill-rule="evenodd">
        <g id="do" transform="translate(2.000000, 2.000000)">
            <path d="M16,0 C11.581722,0 7.58172203,1.790861 4.6862915,4.6862915 C1.790861,7.58172203 0,11.581722 0,16 C0,20.418278 1.790861,24.418278 4.6862915,27.3137085 C7.58172203,30.209139 11.581722,32 16,32 C20.418278,32 24.418278,30.209139 27.3137085,27.3137085 C30.209139,24.418278 32,20.418278 32,16 C32,12.0300527 30.5542769,8.39771034 28.1602796,5.60106603 C25.2256494,2.17285988 20.8666191,0 16,0 Z" id="Outline" stroke="#2CF287" stroke-width="4"></path>
            <g id="01-Icons/checkmark" transform="translate(7.589743, 8.820513)" fill="#00E89A">
                <path d="M6.85575385,14.3590701 C6.71790769,14.3590701 6.57910425,14.3198222 6.45657434,14.2394119 L0.585668375,10.3356855 C0.260198289,10.1193436 0.175958972,9.68665982 0.396129914,9.36789058 C0.616300855,9.05007865 1.05855727,8.96871114 1.38307009,9.18313846 L6.66717268,12.6953436 L15.2480958,0.305463249 C15.4673094,-0.01234872 15.9095658,-0.0956307692 16.2350359,0.119753846 C16.560506,0.336095729 16.6457026,0.769736751 16.4245743,1.08754872 L7.44447182,14.0537026 C7.30662566,14.2518564 7.08358289,14.3590701 6.85575385,14.3590701" id="icon-color"></path>
            </g>
        </g>
    </g>
</svg>