<?xml version="1.0" encoding="UTF-8"?>
<svg width="56px" height="56px" viewBox="0 0 56 56" version="1.1" xmlns="http://www.w3.org/2000/svg" xmlns:xlink="http://www.w3.org/1999/xlink">
    <!-- Generator: Sketch 63.1 (92452) - https://sketch.com -->
    <title>MessagingStates/X ⛔️/Decoration/danger</title>
    <desc>Created with Sketch.</desc>
    <g id="Page-1" stroke="none" stroke-width="1" fill="none" fill-rule="evenodd">
        <g id="inout-don't" transform="translate(-16.000000, -328.000000)">
            <g id="MessagingStates/X-⛔️/Decoration/danger" transform="translate(16.000000, 328.000000)">
                <path d="M28,2 C20.8202983,2 14.3202983,4.91014913 9.61522369,9.61522369 C4.91014913,14.3202983 2,20.8202983 2,28 C2,35.1797017 4.91014913,41.6797017 9.61522369,46.3847763 C14.3202983,51.0898509 20.8202983,54 28,54 C35.1797017,54 41.6797017,51.0898509 46.3847763,46.3847763 C51.0898509,41.6797017 54,35.1797017 54,28 C54,21.5488356 51.6507,15.6462793 47.7604543,11.1017323 C42.9916803,5.5308973 35.9082561,2 28,2 Z" id="Outline" stroke="#FF595E" stroke-width="4"></path>
                <g id="01-Icons/remove" transform="translate(9.333333, 9.333333)" fill="#FF595E" fill-rule="evenodd">
                    <path d="M31.5,19.8333333 L5.83333333,19.8333333 C5.18933333,19.8333333 4.66666667,19.3106667 4.66666667,18.6666667 C4.66666667,18.0226667 5.18933333,17.5 5.83333333,17.5 L31.5,17.5 C32.144,17.5 32.6666667,18.0226667 32.6666667,18.6666667 C32.6666667,19.3106667 32.144,19.8333333 31.5,19.8333333" id="icon-color" transform="translate(18.666667, 18.666667) rotate(-45.000000) translate(-18.666667, -18.666667) "></path>
                    <path d="M31.5,19.8333333 L5.83333333,19.8333333 C5.18933333,19.8333333 4.66666667,19.3106667 4.66666667,18.6666667 C4.66666667,18.0226667 5.18933333,17.5 5.83333333,17.5 L31.5,17.5 C32.144,17.5 32.6666667,18.0226667 32.6666667,18.6666667 C32.6666667,19.3106667 32.144,19.8333333 31.5,19.8333333" id="icon-color" transform="translate(18.666667, 18.666667) rotate(-315.000000) translate(-18.666667, -18.666667) "></path>
                </g>
            </g>
        </g>
    </g>
</svg>