<?xml version="1.0" encoding="UTF-8"?>
<svg width="36px" height="36px" viewBox="0 0 36 36" version="1.1" xmlns="http://www.w3.org/2000/svg" xmlns:xlink="http://www.w3.org/1999/xlink">
    <!-- Generator: Sketch 63.1 (92452) - https://sketch.com -->
    <title>dont</title>
    <desc>Created with Sketch.</desc>
    <g id="Page-1" stroke="none" stroke-width="1" fill="none" fill-rule="evenodd">
        <g id="dont" transform="translate(2.000000, 2.000000)">
            <path d="M16,0 C11.581722,0 7.58172203,1.790861 4.6862915,4.6862915 C1.790861,7.58172203 0,11.581722 0,16 C0,20.418278 1.790861,24.418278 4.6862915,27.3137085 C7.58172203,30.209139 11.581722,32 16,32 C20.418278,32 24.418278,30.209139 27.3137085,27.3137085 C30.209139,24.418278 32,20.418278 32,16 C32,12.0300527 30.5542769,8.39771034 28.1602796,5.60106603 C25.2256494,2.17285988 20.8666191,0 16,0 Z" id="Outline" stroke="#FF595E" stroke-width="4"></path>
            <g id="01-Icons/remove" transform="translate(8.820513, 8.820513)" fill="#FF595E">
                <path d="M15.076923,7.89743608 L-0.717948816,7.89743608 C-1.11425651,7.89743608 -1.43589753,7.57579509 -1.43589753,7.1794874 C-1.43589753,6.78317971 -1.11425651,6.46153866 -0.717948816,6.46153866 L15.076923,6.46153866 C15.4732307,6.46153866 15.7948717,6.78317971 15.7948717,7.1794874 C15.7948717,7.57579509 15.4732307,7.89743608 15.076923,7.89743608" id="icon-color" transform="translate(7.179487, 7.179487) rotate(-45.000000) translate(-7.179487, -7.179487) "></path>
                <path d="M15.0769233,7.8974358 L-0.717948511,7.8974358 C-1.1142562,7.8974358 -1.43589722,7.57579482 -1.43589722,7.17948713 C-1.43589722,6.78317943 -1.1142562,6.46153839 -0.717948511,6.46153839 L15.0769233,6.46153839 C15.473231,6.46153839 15.794872,6.78317943 15.794872,7.17948713 C15.794872,7.57579482 15.473231,7.8974358 15.0769233,7.8974358" id="icon-color" transform="translate(7.179487, 7.179487) rotate(45.000000) translate(-7.179487, -7.179487) "></path>
            </g>
        </g>
    </g>
</svg>